<svg xmlns="http://www.w3.org/2000/svg" viewBox="0 0 24 24" fill="currentColor"><path d="M12 0c-6.627 0-12 5.373-12 12s5.373 12 12 12 12-5.373 12-12-5.373-12-12-12zm3.445 17.827c-1.139.037-1.98.008-2.948-.131-1.055-.152-1.926-.479-2.78-1.082-.705-.498-.869-.947-.967-1.326.537-.158 1.179.012 1.621.295.453.29.725.701 1.146.928.802.434 1.864.377 2.989.184-.076-1.906-.11-2.967.209-4.094.456-1.6 1.547-2.477 3.076-2.843 1.17-.28 2.494-.206 3.413.314.403.229.751.504 1.119.759.192.133.539.268.523.56.058.175-.275.188-.419.225-.361.094-.724.179-1.086.261.549.505 1.184.947 1.575 1.561.108.17.276.394.194.622-.158.297-.544.189-.826.154-1.256-.153-2.501-.354-3.747-.595.139.494.186 1.009.227 1.519.093 1.145.099 2.302-.073 3.438-.401 2.654-2.321 3.604-4.868 4.059-.268.048-.54.068-.812.102-.024-.794-.102-1.516.199-2.207.262-.602.779-.947 1.309-1.28.278-.174.638-.285.697-.664-.003-.387-.412-.44-.706-.537zm-7.857-4.524c.078-.385.24-.719.399-1.074.417-.93.957-1.775 1.555-2.572.387-.514.821-.98 1.286-1.405.805-.735 1.701-1.353 2.725-1.685.503-.164 1.019-.292 1.557-.312.308-.011.622-.025.918.085.518.191.798.799.762 1.343-.066.995-.041 2.013-.705 2.832-.41.506-.887.97-1.555 1.119-.597.134-1.017-.146-1.404-.508-.146-.137-.238-.331-.396-.461-.345-.288-.882-.07-1.146.193-.422.422-.682.982-.931 1.512-.187.397-.305.821-.437 1.237-.076.239-.063.521-.339.631-.414.166-.775-.125-1.061-.375-.462-.406-.753-.919-.93-1.48-.08-.252-.168-.504-.209-.764-.074-.467.009-.95.311-1.316z"/></svg>
